<?xml version="1.0" encoding="UTF-8"?>
<svg id="_Слой_1" data-name="Слой 1" xmlns="http://www.w3.org/2000/svg" viewBox="0 0 63.94 63.94">
  <defs>
    <style>
      .cls-1 {
        fill: #1d1d1b;
      }
    </style>
  </defs>
  <path class="cls-1" d="m19.98,30.28c-.53.53-.72,1.33-.48,2.05.1.3.27.59.49.81l15.87,15.87c.39.39.9.58,1.41.58s1.02-.19,1.41-.58c.78-.78.78-2.05,0-2.83l-14.47-14.47,14.46-14.46c.78-.78.78-2.04,0-2.82-.78-.78-2.04-.78-2.83,0,0,0-15.86,15.86-15.86,15.86Z"/>
  <path class="cls-1" d="m0,31.97c0,17.63,14.34,31.97,31.97,31.97,17.63,0,31.97-14.34,31.97-31.97C63.94,14.34,49.6,0,31.97,0,14.34,0,0,14.34,0,31.97Zm4,0c0-15.43,12.55-27.97,27.97-27.97,15.42,0,27.98,12.55,27.98,27.97,0,15.43-12.55,27.98-27.98,27.98S4,47.4,4,31.97Z"/>
</svg>