<?xml version="1.0" encoding="UTF-8"?>
<svg id="Capa_1" data-name="Capa 1" xmlns="http://www.w3.org/2000/svg" viewBox="0 0 494.9 537.6">
  <defs>
    <style>
      .cls-1 {
        stroke-miterlimit: 10;
      }

      .cls-1, .cls-2 {
        fill: none;
        stroke: #000;
        stroke-width: 4px;
      }

      .cls-2 {
        stroke-linejoin: round;
      }
    </style>
  </defs>
  <g>
    <polygon class="cls-1" points="223.4 478.6 223.4 353 247.2 356.9 271 353 271 478.6 223.4 478.6"/>
    <path class="cls-2" d="m83.9,49.6S1.7,8.5,2,89c0,0-.8,71.1,45.6,129.4,0,0,36.2,51.4,98.9,71,0,0-17.4-26.8-26.1-47.2,0,0-57-32.4-77.5-99.2,0,0-36.2-91.7,40.9-59.1v-34.3h.1Z"/>
    <path class="cls-1" d="m247.2,356.9c41.3,0,75.6-37.3,75.6-37.3,42.5-42.9,65.7-115.7,65.7-115.7,30.3-79.3,19.2-201.9,19.2-201.9H86.6s-11,122.6,19.3,201.9c0,0,23.2,72.9,65.7,115.7,0,0,34.3,37.3,75.6,37.3Z"/>
    <path class="cls-2" d="m411,49.6s82.2-41.1,81.9,39.4c0,0,.8,71.1-45.6,129.4,0,0-36.2,51.4-98.9,71,0,0,17.4-26.8,26.1-47.2,0,0,57-32.4,77.5-99.2,0,0,36.2-91.7-40.9-59.1v-34.3h-.1Z"/>
    <rect class="cls-1" x="104.2" y="494" width="285.9" height="41.6"/>
    <rect class="cls-1" x="198.2" y="478.6" width="98" height="15.4"/>
  </g>
  <path d="m261.04,217.45h-24.7v-93.08c-9.02,8.44-19.66,14.68-31.9,18.72v-22.41c6.44-2.11,13.45-6.11,21.01-12s12.74-12.76,15.56-20.61h20.04v129.38Z"/>
</svg>