<?xml version="1.0" encoding="utf-8"?>
<!-- Generator: Adobe Illustrator 27.2.0, SVG Export Plug-In . SVG Version: 6.00 Build 0)  -->
<svg version="1.1" id="Слой_1" xmlns="http://www.w3.org/2000/svg" xmlns:xlink="http://www.w3.org/1999/xlink" x="0px" y="0px"
	 viewBox="0 0 437.1 535.4" style="enable-background:new 0 0 437.1 535.4;" xml:space="preserve">
<style type="text/css">
	.st0{fill:#024D6A;}
	.st1{fill:#A37400;}
</style>
<g transform="translate(0.000000,672.000000) scale(0.100000,-0.100000)">
	<path class="st0" d="M1790.9,6415.9l-3-228l-70-5l-70-5l-3-253l-2-252l177,2l178,3v250v250l-72,3l-73,3v229v230h-30h-30
		L1790.9,6415.9z"/>
	<path class="st0" d="M1324.9,5450.9l3-93l102-3l102-3l3,58l3,58l112,3l112,3l3-58l3-58h65h65l3,58l3,58l112-3l112-3l5-55l5-55h90
		h90v90v90l-498,3l-498,2L1324.9,5450.9z"/>
	<path class="st0" d="M1177.9,5190.9c-3-7-4-128-3-268l3-255h65h65v265v265l-63,3C1200.9,5202.9,1180.9,5199.9,1177.9,5190.9z"/>
	<path class="st0" d="M1575.9,5195.9c-16-6-17-65-1-81c14-14,464-17,486-3c8,5,12,23,10,47l-3,39l-240,2
		C1695.9,5200.9,1581.9,5198.9,1575.9,5195.9z"/>
	<path class="st0" d="M2337.9,5196.9c-8-3-13-427-6-522c1-9,18-12,64-10l62,3v265v265l-55,2
		C2372.9,5200.9,2343.9,5199.9,2337.9,5196.9z"/>
	<path class="st0" d="M1497.9,4870.9c-3-7-4-348-3-758l3-745l67-3l68-3l2,698l3,698l183,3l182,2v-677c0-373,3-688,6-700
		c6-21,12-23,69-23c48,0,64,4,69,16c3,9,6,345,6,748c0,556-3,735-12,744C2122.9,4888.9,1503.9,4887.9,1497.9,4870.9z"/>
	<path class="st0" d="M1079.9,4405.9c-4-3-7-395-7-870v-863h-95h-95v-45v-45h568h569l11,38c20,64,29,67,295,70l237,3v80v79h-114
		c-126,0-126,1-126-78v-32l-502,2l-503,3l-3,833l-2,832h-113C1136.9,4412.9,1082.9,4409.9,1079.9,4405.9z"/>
	<path class="st0" d="M2329.9,4405.9c-9-8-9-1006-1-1027c5-13,25-16,120-16h114v525v525h-113
		C2386.9,4412.9,2332.9,4409.9,2329.9,4405.9z"/>
	<path class="st1" d="M1727.9,3295.9c-254-3-255-4-255-69c0-19-6-34-15-38c-12-4-15-23-15-85c0-61,3-80,15-85c10-3,15-19,15-44
		c0-23,6-45,15-52c12-10,131-12,581-7c311,4,569,9,575,12c5,4,9,34,9,68s4,68,8,75c5,7,26,13,48,15l39,2l3-227l2-228h-318
		c-239,0-322-3-335-12c-12-10-17-32-19-88l-3-75l-35-5l-35-5l-3-59c-2-46,1-62,12-68c18-10,22-68,7-83c-14-15-18-512-4-526
		c8-8,34-8,95,1c47,6,89,15,96,19c8,4,12,80,13,251c1,213-1,245-15,256c-21,15-22,80-1,88c10,4,15,20,15,50c0,64-7,76-45,76
		c-39,0-41,5-37,65l4,45h315c197,0,321,4,334,10c18,10,19,24,19,291v279l-26,10c-14,6-47,10-74,10c-55,0-60,7-60,80c0,34-4,50-16,54
		C2621.9,3302.9,2260.9,3301.9,1727.9,3295.9z"/>
	<path class="st0" d="M40.9,2381.9c-8-5-2-10,15-14c52-13,57-33,57-227c0-165-2-180-20-198c-11-11-29-20-41-20c-11,0-17-4-14-10
		s50-10,106-10c59,0,99,4,99,10s-7,10-15,10c-16,0-55,35-55,49c0,5,6,16,13,23c6,7,61,67,121,133c61,66,116,124,123,128
		c11,7,13-20,11-150l-3-158l-32-15c-18-8-33-18-33-22c0-5,45-8,100-8s100,4,100,8s-14,13-30,19l-30,11l2,204l3,203l28,13
		c45,22,22,31-74,30c-95-1-120-12-71-29c44-15,48-37,14-73c-15-17-72-79-126-138c-54-60-102-108-107-108s-9,63-9,140
		c0,136,1,142,25,165c13,14,29,25,35,25s8,5,5,11C229.9,2395.9,60.9,2393.9,40.9,2381.9z"/>
	<path class="st0" d="M656.9,2381.9c-2-4,9-10,26-14c16-4,33-12,37-18c11-18,3-367-10-394c-6-13-21-26-34-29c-49-13-19-24,62-24
		c47,0,85,3,85,8c0,4-15,14-33,22l-32,15l-3,173c-1,98,1,172,7,172c5,0,11-8,14-17c22-74,148-358,159-358c8,0,38,69,78,175
		c36,96,69,184,75,195c12,25,25-299,14-332c-5-12-20-25-34-29c-50-12-12-24,81-24c90,0,122,11,69,24c-37,9-46,61-43,257l3,172l35,12
		c33,11,34,12,10,18c-32,9-90,8-113-2c-13-4-39-61-82-175c-35-92-66-170-69-174c-11-11-23,12-86,173c-35,88-67,164-71,169
		C791.9,2387.9,663.9,2391.9,656.9,2381.9z"/>
	<path class="st0" d="M1326.9,2383.9c-3-3,10-12,28-21l33-15v-205v-205l-32-10c-18-5-33-13-33-17c0-9,194-11,203-2c4,4-8,14-26,23
		l-32,16l-3,194c-2,134,1,198,9,207c15,18,209,20,227,2c8-8,12-67,12-200c0-175-1-189-20-208c-11-11-27-20-35-20s-15-4-15-10
		s40-10,100-10c102,0,122,7,71,26c-36,14-37,24-31,244l5,175l28,13c16,8,26,16,23,20C1831.9,2387.9,1333.9,2390.9,1326.9,2383.9z"/>
	<path class="st0" d="M2412.9,2384.9l-55-4l35-16l35-17l3-203l2-204l-30-11c-16-6-30-15-30-19s85-8,190-8h189l6,35c3,19,7,51,10,70
		c7,45-7,45-28,0c-25-53-69-75-148-75c-45,0-70,5-78,14s-11,46-9,103l3,88l37,3c48,4,77-12,90-49c18-52,28-31,28,61s-11,115-31,63
		c-14-37-25-43-81-43h-48v85c0,97,6,105,85,105c70,0,108-20,133-71l21-44l1,68v67l-117,1c-65,0-127,1-138,3
		C2476.9,2387.9,2442.9,2386.9,2412.9,2384.9z"/>
	<path class="st0" d="M2927.9,2383.9c-88-6-89-6-60-21l30-15l3-194c2-170,0-196-14-212c-10-11-23-19-31-19c-7,0-13-4-13-10
		s40-10,100-10c55,0,100,3,100,8c0,4-15,14-33,22l-32,15l-3,88l-3,87h77c125,0,178,41,176,139
		C3223.9,2368.9,3149.9,2398.9,2927.9,2383.9z M3118.9,2345.9c34-22,50-82,35-133c-16-55-45-72-118-68l-58,3l-3,99
		c-3,121,2,131,71,122C3072.9,2364.9,3105.9,2354.9,3118.9,2345.9z"/>
	<path class="st0" d="M3305.9,2379.9c-2-4,6-11,19-16c47-18,49-27,46-227l-3-189l-32-15c-18-8-33-18-33-22c0-5,45-8,100-8
		c95,0,129,11,75,24c-15,4-27,16-31,31c-5,21,11,43,110,153c63,71,122,135,131,142c13,11,15-4,15-143c0-166-6-187-51-187
		c-11,0-17-4-14-10s48-10,101-10c56,0,94,4,94,10s-6,10-13,10c-8,0-21,8-30,18c-15,16-17,45-17,199c0,100,3,189,6,198
		c4,9,18,21,33,27l26,11l-25,7c-31,10-115,10-155,0c-27-6-28-8-10-14c37-14,50-23,53-39c3-14-227-276-250-285c-5-2-7,65-6,149l3,154
		l30,14l30,15l-30,8C3442.9,2394.9,3312.9,2390.9,3305.9,2379.9z"/>
	<path class="st0" d="M4057.9,2383.9c-47-12-74-29-90-61c-34-65-10-138,55-166c40-18,40-18,20-38c-10-12-35-56-54-99
		c-36-78-56-93-84-65c-9,9-12,8-12-4c0-40,56-66,97-46c28,13,42,35,86,138c30,70,50,90,92,90c39,0,45-11,45-90c0-75-13-108-45-116
		c-54-13-21-24,75-24c60,0,100,4,100,10s-9,10-19,10c-43,0-51,33-51,218c0,103,4,181,11,193c5,11,22,24,36,30c14,5,23,12,20,16
		C4330.9,2387.9,4092.9,2391.9,4057.9,2383.9z M4192.9,2362.9c16-10,27-131,16-175c-6-23-11-25-67-25c-54,0-64,3-90,29
		c-54,55-30,148,44,170C4137.9,2373.9,4174.9,2374.9,4192.9,2362.9z"/>
	<path class="st0" d="M812.9,1763.9c0-5,9-11,20-14c19-5,20-14,20-141c0-132-1-137-22-146c-18-7-8-9,40-9l62-1l-21,21
		c-16,16-19,30-17,67l3,47l64,6c81,8,103,30,99,98c-3,41-7,48-38,63c-25,13-59,18-122,18C851.9,1772.9,812.9,1768.9,812.9,1763.9z
		 M994.9,1741.9c40-21,35-108-8-127c-32-15-67-15-82,0c-18,18-15,113,4,132C923.9,1762.9,956.9,1760.9,994.9,1741.9z"/>
	<path class="st0" d="M1150.9,1755.9c21-15,22-22,22-150c0-129-1-134-22-143c-16-6,20-9,108-9l132-1l4,40c4,43-6,54-17,19
		c-8-23-60-49-99-49c-50,0-56,8-56,76v64h34c25,0,39-7,50-22c21-30,24-22,16,42c-4,30-8,50-9,43c-2-22-32-43-61-43c-26,0-28,4-32,43
		c-7,68,4,87,52,87c51,0,75-12,95-48l15-27l-3,45l-2,45l-125,2C1135.9,1771.9,1128.9,1770.9,1150.9,1755.9z"/>
	<path class="st0" d="M1467.9,1762.9c3-5,13-10,21-10c11,0,14-24,14-134c0-128-1-136-22-150c-22-15-21-16,27-16c39,1,46,3,33,11
		c-16,9-18,26-18,125c0,63,4,113,8,110c5-3,30-59,56-125c27-67,52-121,56-121s24,46,45,103c61,166,58,161,66,97
		c14-107,11-158-11-180l-20-20h62c59,0,61,1,40,16c-21,14-22,22-22,150c0,110,3,134,14,134c8,0,18,5,21,10c4,6-12,10-40,10
		c-41,0-47-3-56-27c-47-128-82-213-88-213c-3,0-24,45-45,100c-51,131-58,140-107,140C1477.9,1772.9,1463.9,1768.9,1467.9,1762.9z"/>
	<path class="st0" d="M2342.9,1767.9c0-3,9-14,20-25c18-18,20-33,20-133c0-114-6-138-40-150c-8-3,14-6,50-6c49,0,61,2,48,10
		c-14,8-18,24-18,74v65h80h80v-65c0-59-2-67-22-75c-17-6-7-9,42-9s61,2,48,10c-16,9-18,27-18,145c0,110,3,136,15,140
		c33,13,11,24-47,23c-60,0-62-1-40-16c19-13,22-25,22-75v-59l-77,3l-78,3l-3,58c-2,44,0,59,12,63c33,13,14,24-39,24
		C2367.9,1772.9,2342.9,1770.9,2342.9,1767.9z"/>
	<path class="st0" d="M2720.9,1727.9c-2-25,0-45,4-45c5,0,8,6,8,13c0,23,46,59,72,55c23-3,23-5,26-133c3-123,2-131-19-147
		c-21-18-19-18,47-17c48,0,63,3,48,9c-17,7-22,20-27,71c-9,78-9,182-1,203c13,33,74,13,98-32l15-27l1,48v47h-134h-134L2720.9,1727.9
		z"/>
	<path class="st0" d="M3159.9,1746.9c-8-16-36-81-62-144s-55-123-63-132c-14-17-12-18,34-17c27,1,42,3,32,6c-25,6-29,30-13,69
		c13,33,16,34,68,34c62,0,75-10,84-63c4-29,2-36-13-40c-11-3,10-5,45-6c61-1,63,0,42,17c-11,9-43,74-70,144
		C3177.9,1784.9,3178.9,1783.9,3159.9,1746.9z M3185.9,1655.9c25-69,23-73-28-73c-25,0-45,4-45,9c0,15,42,111,49,111
		C3165.9,1702.9,3176.9,1681.9,3185.9,1655.9z"/>
	<path class="st0" d="M1963.9,1653.9c-20-36-13-125,12-161c35-53,69-72,124-73c95-1,163,70,163,171c0,51-18,88-40,80
		c-10-3-13-21-11-66c4-108-34-172-103-172c-68,0-106,55-106,153c0,44-5,68-14,76C1976.9,1671.9,1971.9,1669.9,1963.9,1653.9z"/>
</g>
</svg>
