<?xml version="1.0" encoding="utf-8"?><svg viewBox="0 0 1706.667 1706.667" xmlns="http://www.w3.org/2000/svg" xmlns:xlink="http://www.w3.org/1999/xlink"><style>:root>svg{display:none}:root>svg:target{display:block}</style><svg data-name="Capa 1" viewBox="0 0 103.09 281.02" id="1" xmlns="http://www.w3.org/2000/svg"><path d="M103.09 281.02H68.73V62.05c-8.27 7.89-19.13 15.78-32.55 23.67C22.75 93.61 10.69 99.53 0 103.47V70.25c19.22-9.04 36.02-19.98 50.4-32.84C64.78 24.56 74.96 12.08 80.95-.01h22.15v281.02z"/></svg><svg viewBox="0 0 32 32" id="arrow-left" xmlns="http://www.w3.org/2000/svg"><path d="M16 0C7.163 0 0 7.163 0 16s7.163 16 16 16 16-7.163 16-16S24.837 0 16 0zm0 30.032C8.28 30.032 2 23.72 2 16S8.28 2 16 2s14 6.28 14 14-6.28 14.032-14 14.032zm7.01-15.043H11.746l3.617-3.617a1 1 0 00-1.414-1.414L8.042 16.02l5.907 6.063a.997.997 0 001.414 0 1 1 0 000-1.414l-3.68-3.68H23.01a1 1 0 000-2z"/></svg><svg viewBox="0 0 32 32" id="arrow-right" xmlns="http://www.w3.org/2000/svg"><path d="M16 0C7.164 0 0 7.163 0 16s7.163 16 16 16 16-7.163 16-16S24.837 0 16 0zm0 30.032C8.28 30.032 2 23.72 2 16S8.28 2 16 2s14 6.28 14 14-6.28 14.032-14 14.032zm.637-20.075a1 1 0 000 1.414l3.617 3.617H8.99a1 1 0 100 2h11.327l-3.68 3.68a1 1 0 001.414 1.414l5.907-6.063-5.907-6.063a1.002 1.002 0 00-1.415 0z"/></svg><svg baseProfile="tiny" viewBox="0 0 42 42" id="check" xmlns="http://www.w3.org/2000/svg"><path d="M39.04 7.604l-2.398-1.93c-1.182-.95-1.869-.939-2.881.311L16.332 27.494l-8.111-6.739c-1.119-.94-1.819-.89-2.739.26l-1.851 2.41c-.939 1.182-.819 1.853.291 2.78l11.56 9.562c1.19 1 1.86.897 2.78-.222l21.079-25.061c.99-1.19.93-1.901-.301-2.88z"/></svg><svg viewBox="0 0 122.88 122.88" id="check-old" xmlns="http://www.w3.org/2000/svg"><path d="M34.465 67.43a3.57 3.57 0 014.789-5.293l13.081 11.862 31.088-32.56a3.577 3.577 0 015.182 4.929L55.11 81.447l-.005-.004a3.57 3.57 0 01-4.98.187l-15.66-14.2zM8.792 0h105.296c2.422 0 4.62.988 6.212 2.58s2.58 3.791 2.58 6.212v105.295c0 2.422-.988 4.62-2.58 6.212s-3.79 2.58-6.212 2.58H8.792c-2.421 0-4.62-.988-6.212-2.58S0 116.51 0 114.088V8.792c0-2.421.988-4.62 2.58-6.212S6.371 0 8.792 0zm105.296 7.17H8.792a1.62 1.62 0 00-1.143.479 1.62 1.62 0 00-.479 1.143v105.295c0 .442.184.848.479 1.144.296.296.701.479 1.143.479h105.296c.442 0 .848-.184 1.144-.479a1.62 1.62 0 00.479-1.144V8.792a1.62 1.62 0 00-.479-1.143 1.622 1.622 0 00-1.144-.479z"/></svg><svg viewBox="0 0 1000 1000" id="dropdown" xmlns="http://www.w3.org/2000/svg"><path d="M972.2 328.1L546.3 753.9c-1 1.3-1.5 2.9-2.7 4-12 12.1-27.9 17.9-43.6 17.7-15.8.2-31.7-5.6-43.7-17.7-1.2-1.2-1.7-2.8-2.7-4L27.8 328.1c-23.8-23.8-23.8-62.3 0-86 23.7-23.8 62.2-23.8 86 0L500 628.4l386.2-386.2c23.8-23.8 62.3-23.8 86 0 23.7 23.6 23.7 62.1 0 85.9z"/></svg><svg viewBox="0 0 500 500" id="eye" xmlns="http://www.w3.org/2000/svg"><path d="M250 125c85.114 0 162.625 37.095 232.533 111.284 7.259 7.703 7.259 19.729 0 27.432C412.625 337.906 335.113 375 250 375c-85.114 0-162.625-37.095-232.533-111.284-7.259-7.703-7.259-19.729 0-27.432C87.375 162.094 164.887 125 250 125zm39.398 33.061l.956.416C325.484 173.988 350 209.13 350 250c0 41.24-24.963 76.648-60.602 91.94 58.23-9.198 112.536-39.185 163.535-90.752l1.167-1.189-1.167-1.187c-50.999-51.566-105.304-81.553-163.535-90.751zm-78.795-.001l-1.755.284c-57.567 9.52-111.295 39.42-161.781 90.468L45.899 250l1.168 1.189c50.999 51.567 105.304 81.553 163.536 90.751C174.962 326.646 150 291.24 150 250c0-41.24 24.963-76.648 60.603-91.94zM275 250c-13.807 0-25 11.193-25 25s11.193 25 25 25 25-11.193 25-25-11.193-25-25-25z"/></svg><svg viewBox="0 0 256 256" id="list-check" xmlns="http://www.w3.org/2000/svg"><path d="M198.419 254.307H57.292a13.634 13.634 0 01-13.617-13.617V53.993a13.634 13.634 0 0113.617-13.617h25.462a2.81 2.81 0 010 5.62H57.292a8.006 8.006 0 00-7.997 7.997V240.69a8.006 8.006 0 007.997 7.997H198.42a8.008 8.008 0 008-7.997V53.993a8.008 8.008 0 00-8-7.997h-25.461a2.81 2.81 0 110-5.62h25.46a13.634 13.634 0 0113.621 13.617V240.69a13.634 13.634 0 01-13.62 13.617z"/><path d="M172.96 55.873H82.754a2.81 2.81 0 01-2.81-2.81v-9.545c0-14.933 11.982-27.12 26.835-27.454 3.246-8.73 11.625-14.657 21.078-14.657s17.832 5.926 21.078 14.657c14.853.334 26.835 12.521 26.835 27.454v9.545a2.81 2.81 0 01-2.81 2.81zm-87.396-5.62h84.586v-6.735c0-12.044-9.795-21.84-21.839-21.84h-1.43a2.81 2.81 0 01-2.718-2.09 16.89 16.89 0 00-16.306-12.561 16.894 16.894 0 00-16.306 12.56 2.81 2.81 0 01-2.718 2.091h-1.43c-12.044 0-21.84 9.799-21.84 21.84v6.735z"/><path d="M134.601 33.68h-13.49a2.81 2.81 0 010-5.62h13.49a2.81 2.81 0 110 5.62zm-55.107 81.397a2.804 2.804 0 01-2.27-1.155l-8.495-11.656a2.81 2.81 0 014.54-3.31l5.997 8.228 10.56-17.6a2.81 2.81 0 114.82 2.892l-12.74 21.235a2.804 2.804 0 01-2.285 1.36l-.127.006zM182.01 93.842h-68.562a2.81 2.81 0 010-5.62h68.562a2.81 2.81 0 110 5.62zm-32.647 21.235h-35.915a2.81 2.81 0 010-5.62h35.915a2.81 2.81 0 110 5.62zm-69.868 50.577a2.804 2.804 0 01-2.27-1.155l-8.495-11.653a2.81 2.81 0 014.54-3.307l5.997 8.228 10.56-17.6a2.81 2.81 0 114.82 2.892l-12.74 21.235a2.804 2.804 0 01-2.285 1.36h-.127zm102.515-21.232h-68.562a2.81 2.81 0 110-5.62h68.562a2.81 2.81 0 110 5.62zm-32.647 21.232h-35.915a2.81 2.81 0 110-5.62h35.915a2.81 2.81 0 110 5.62zm-69.868 50.58a2.804 2.804 0 01-2.27-1.155l-8.495-11.653a2.81 2.81 0 014.54-3.307l5.997 8.228 10.56-17.6a2.81 2.81 0 114.82 2.892l-12.74 21.235a2.804 2.804 0 01-2.285 1.36h-.127zm102.515-21.232h-68.562a2.81 2.81 0 110-5.62h68.562a2.81 2.81 0 110 5.62zm-32.647 21.232h-35.915a2.81 2.81 0 110-5.62h35.915a2.81 2.81 0 110 5.62z"/></svg><svg data-name="Layer 1" viewBox="0 0 122.88 113.83" id="logo" xmlns="http://www.w3.org/2000/svg"><path d="M97.65 8l15.71.64v21.19L97.65 19.46V8zM112 110.64a1.89 1.89 0 01-1.9 1.89H86.41v-5.38h20.18V54.53a1.47 1.47 0 010-.36l-45-35-45.87 35.02a1.91 1.91 0 01.06.48v52.48h24.16v5.38H12.28a1.89 1.89 0 01-1.89-1.89v-54a8.3 8.3 0 01-5.73.27A6.75 6.75 0 011.5 54.7a7 7 0 01-1.45-3.57 9 9 0 012.17-6.65 1.77 1.77 0 01.31-.3L60 .5a1.87 1.87 0 012.44-.1L120.05 44a2.29 2.29 0 01.23.21 8.49 8.49 0 012.4 7.84 7.24 7.24 0 01-4.56 5.12 7.9 7.9 0 01-6.13-.4v53.88zm-58.93-6h18.69a9.14 9.14 0 00.78-1.17v-.06l.88-1.46a22.47 22.47 0 001.86-3.7v-3.73l.72-3.81v-4.95a2.44 2.44 0 00-1.93-2h-1.75v.94c0 .62-.08 1.23-.08 1.8a1.12 1.12 0 01-2.24 0c0-.57 0-1.24.09-1.94v-.53.97-1.29c0-1.69-.3-3.15-1.66-3.4h-1.67v2.6c0 .62-.07 1.22-.07 1.79a1.12 1.12 0 01-2.24 0c0-.57 0-1.24.09-1.93v-1.56c.06-1.89-.15-3.64-1.65-3.92h-1.55a1.36 1.36 0 01-.29 0v4.21a1.12 1.12 0 01-2.24 0V76c0-1.54-1.53-2.21-3-2.21a2.54 2.54 0 00-1.16.28 3.27 3.27 0 00-1.5 2v14.22a1.12 1.12 0 01-2.24 0v-2.07l-.17-.11-2.16-1.75L45.44 84a4.19 4.19 0 00-1-.62h-.74a1.82 1.82 0 00-1 0 1 1 0 00-.52.54h-.07a3.67 3.67 0 00-.11 1.34 5.84 5.84 0 00.54 1.94A12.88 12.88 0 0044 89.59a.41.41 0 01.07.11l8.47 12.6a1.1 1.1 0 01.19.51 11.05 11.05 0 00.34 1.81zm9.79-66.93v12.64h11.85a11.88 11.88 0 00-3.9-8.79 13.23 13.23 0 00-8-3.83zm0 15.45v7.51h11.85v-7.53zm-2.79 7.5v-7.5h-11.9v7.51h11.88zm0-10.29V37.69a13.25 13.25 0 00-8 3.83 11.92 11.92 0 00-3.9 8.79zm1.39-15.53a16 16 0 0111.34 4.72 14.66 14.66 0 014.7 10.75v13.12H45.38V50.31a14.7 14.7 0 014.71-10.77 16 16 0 0111.35-4.72zm13.69 69.87a1.66 1.66 0 011.21 1.6v5.87a1.67 1.67 0 01-1.67 1.67H50.56a1.68 1.68 0 01-1.67-1.67v-5.87a1.68 1.68 0 011.64-1.67L42.22 91a14.67 14.67 0 01-1.67-2.83 7.91 7.91 0 01-.72-2.7 6.13 6.13 0 010-1.05c-3.17.66-6.44.73-9.62-2.52a11.9 11.9 0 01-3.08-8.9c8.13 9.44 18-2.23 6-8.3 5.87-2.7 11.29-.16 14.2 5.18 1.38 2.52 2.19 3.85 3.24 4.74a5.3 5.3 0 00.6.46 5.41 5.41 0 012.5-3 4.76 4.76 0 012.18-.52c2.12 0 4.76 1.26 5.2 3.43a1 1 0 01.3 0h1.54a1.07 1.07 0 01.25 0 3.73 3.73 0 013.34 3.06A1 1 0 0167 78h1.54a1 1 0 01.25 0 3.81 3.81 0 013.42 3.42h1.71a1 1 0 01.25 0c2.53.39 3.53 2 3.92 4C82.67 84.77 87.76 82 92.7 87a11.9 11.9 0 013 8.83c-8.13-9.44-18 2.23-6 8.3-5 2.36-9.73.78-12.81-3.11a20.46 20.46 0 01-1.56 3.28l-.22.36zM50.67 84.24c-.45-.18-.8-.33-1.06-.42a15.39 15.39 0 00-1.46-.51l1.6 1.32.92.74v-1.13z"/></svg><svg viewBox="0 0 64 64" id="next" xmlns="http://www.w3.org/2000/svg"><path d="M28.154 14.479a1.996 1.996 0 00-2.825 0 1.995 1.995 0 000 2.824l14.46 14.463-14.473 14.47a1.999 1.999 0 002.826 2.826l15.866-15.865c.218-.22.394-.516.491-.811.24-.718.053-1.51-.481-2.045L28.154 14.479z"/><path d="M32.029.059C14.401.059.059 14.4.059 32.029S14.401 64 32.029 64 64 49.658 64 32.029 49.657.059 32.029.059zm0 59.945c-15.425 0-27.975-12.549-27.975-27.975S16.604 4.055 32.029 4.055 60.004 16.604 60.004 32.03s-12.55 27.974-27.975 27.974z"/></svg><svg viewBox="-74 0 100 100" id="phone" xmlns="http://www.w3.org/2000/svg"><path d="M21.2 71.7L9.1 59.5c-2-2-4.7-3.2-7.2-3.2-2.7 0-5.1 1.1-7.2 3.2l-7 7c-.3-.2-.7-.4-1-.5 0 0-.1 0-.1-.1l-.1-.1c-.9-.6-1.9-1.2-3.1-1.7-6.1-3.8-11.8-9.1-17.6-16.2-2.7-3.4-4.6-6.4-6.1-9.7 1.6-1.3 2.8-2.6 3.7-3.6l3.1-3.1c2.4-2.2 3.6-4.7 3.6-7.3 0-2.7-1.2-5.2-3.5-7.6l-9.5-9.5c-.9-.9-1.8-1.8-2.8-2.7-2-1.9-4.5-3-7.1-3-2.9 0-5.3 1-7.5 3.2l-7.3 7.3c-2.9 2.7-4.6 6.1-5 10.3v.1c-.2 5.2.6 10 2.8 16 3.5 9.4 8.8 18.2 16.7 27.9C-42.8 77.8-31.2 86.8-18.3 93l.3.1c3.8 1.7 11 4.9 19 5.4h1.1c5.3 0 9.3-1.7 12.6-5.3 1.2-1.4 2.5-2.7 3.6-3.9.9-.7 1.5-1.4 2.1-2.1l.8-.8.2-.2c4.2-4.6 4.2-10.2-.2-14.5zm-3.5 11.1l-1 1-.1.2c-.5.6-.9 1.1-1.4 1.5l-.3.3c-1.2 1.2-2.6 2.6-4 4.2-2.3 2.5-4.9 3.6-8.8 3.6h-.8c-7-.5-13.4-3.3-17.2-5l-.2-.1C-28.4 82.6-39.5 74-49.2 63c-7.6-9.2-12.6-17.6-15.9-26.4-2-5.5-2.7-9.5-2.5-14 .3-2.9 1.4-5.2 3.4-7l7.4-7.4c1.2-1.2 2.4-1.7 3.9-1.7 1.3 0 2.5.6 3.6 1.6l.1.1c.9.8 1.8 1.7 2.7 2.6l9.5 9.5c1.8 1.8 2.1 3.2 2.1 4 0 .8-.2 2-2.1 3.7l-3.2 3.2c-1.1 1.2-2.4 2.5-4.1 3.9l-.2.2-.2.3c-.9 1.2-1 2.3-.5 3.9l.1.4.1.4c1.7 3.7 3.8 7.1 6.8 10.9 6.2 7.6 12.4 13.3 19 17.4l.3.2c.8.4 1.6.8 2.3 1.2.3.3.7.5 1 .6.4.2.7.3.9.5l.7.5h.2l.3.1c.6.2 1 .2 1.3.2 1 0 1.9-.4 2.8-1.3l7.5-7.5c1.2-1.2 2.3-1.7 3.7-1.7 1.5 0 2.9.9 3.7 1.7l12.2 12.2c2.4 2.4 2.5 4.9 0 7.5z"/></svg><svg viewBox="0 0 322.421 322.421" id="present" xmlns="http://www.w3.org/2000/svg"><path d="M303.141 65.207h-61.145a35.14 35.14 0 005.096-4.351c6.44-6.652 9.981-15.405 9.981-24.666 0-19.55-15.894-35.457-35.45-35.457-6.69 0-12.442 2.159-15.264 3.451l-.051.019c-8.445 3.908-30.277 22.835-45.097 36.132-14.82-13.297-36.652-32.224-45.104-36.132l-.045-.019c-2.828-1.285-8.573-3.451-15.264-3.451-19.557 0-35.457 15.906-35.457 35.457 0 9.255 3.541 18.014 9.981 24.666a36.296 36.296 0 005.096 4.351H19.281C8.651 65.207 0 73.857 0 84.487V129.7c0 10.63 8.651 19.281 19.281 19.281h10.225v147.644c0 13.818 11.247 25.065 25.065 25.065h213.288c13.818 0 25.052-11.247 25.052-25.065V148.98h10.232c10.63 0 19.28-8.651 19.28-19.281V84.487c-.002-10.63-8.652-19.28-19.282-19.28zm-89.185-44.423c2.474-1.125 5.334-1.793 7.667-1.793 9.48 0 17.198 7.719 17.198 17.198a17.127 17.127 0 01-16.504 17.185h-48.266c16.383-14.665 34.596-30.115 39.905-32.59zm-113.151-1.793c2.327 0 5.193.668 7.661 1.793 5.309 2.474 23.522 17.924 39.911 32.59h-48.272a17.127 17.127 0 01-16.498-17.185c0-9.479 7.712-17.198 17.198-17.198zM19.281 136.127a6.433 6.433 0 01-6.427-6.427V84.487a6.433 6.433 0 016.427-6.427h111.133v58.066H19.281zm111.132 172.708H54.577c-6.735 0-12.211-5.482-12.211-12.211V148.98h88.054v159.855h-.007zm48.735 0h-35.881V78.06h35.881v230.775zm100.908-12.217c0 6.735-5.476 12.211-12.198 12.211h-75.856V148.98h88.054v147.638zM309.568 129.7c0 3.541-2.886 6.427-6.427 6.427H192.002V78.06h111.139c3.541 0 6.427 2.886 6.427 6.427V129.7z"/></svg><svg id="prev" data-name="Слой 1" viewBox="0 0 63.94 63.94" xmlns="http://www.w3.org/2000/svg"><defs><style>.mcls-1{fill:#1d1d1b}</style></defs><path class="mcls-1" d="M19.98 30.28c-.53.53-.72 1.33-.48 2.05.1.3.27.59.49.81l15.87 15.87c.39.39.9.58 1.41.58s1.02-.19 1.41-.58c.78-.78.78-2.05 0-2.83L24.21 31.71l14.46-14.46c.78-.78.78-2.04 0-2.82-.78-.78-2.04-.78-2.83 0L19.98 30.29z"/><path class="mcls-1" d="M0 31.97C0 49.6 14.34 63.94 31.97 63.94S63.94 49.6 63.94 31.97 49.6 0 31.97 0 0 14.34 0 31.97zm4 0C4 16.54 16.55 4 31.97 4c15.42 0 27.98 12.55 27.98 27.97 0 15.43-12.55 27.98-27.98 27.98S4 47.4 4 31.97z"/></svg><svg version="1.0" viewBox="0 0 1280 1280" id="question" xmlns="http://www.w3.org/2000/svg"><path d="M589 144.6c-59.6 3.4-116.1 17.4-172.4 42.9-20.4 9.3-26 14.1-30.5 25.9-2.3 6.2-2.5 8.4-4.6 61.1-.8 19.8-2 48.5-2.6 63.8-.6 15.3-.9 30-.6 32.6.7 6.3 20.1 57.1 24.3 63.8 6.5 10.3 20.6 17.2 32.5 15.9 8.4-.8 13.1-3.2 22.4-11.1 32.8-27.8 62.1-43.8 94-51 16-3.7 39.6-4.5 56.3-2.1 29 4.3 50.4 14.8 62.4 30.8 5.9 7.7 8.6 14.7 10.1 25.5l1 8.2-5.8 7.8c-8.6 11.4-29.1 32-62 62.3-58.7 54-81.7 80.9-104.8 122.5-11.7 21-19.9 46.4-23.1 71.3-4.2 32.7-.3 82.8 9.4 120.8 5.3 20.8 11.7 30.2 24.8 36.6l6.7 3.3h160l5.7-2.7c16.2-7.6 26.1-26.2 23-43.1-.6-3.4-2.7-9.9-4.7-14.5-5.5-13.1-12.4-34.6-14-43.8-2.2-12.4-2.9-28.8-1.7-37.4 4.4-30.9 26.7-59.3 90.2-114.9 47.2-41.3 77.2-79 98.9-124.1 11.9-24.8 17.9-43.9 21.8-69 2.6-16.3 2.5-57.5-.1-74.5-4.7-31.1-14.1-57.2-29.6-83C840.7 210 775.2 168.7 691.5 152c-31.3-6.2-71.8-9.1-102.5-7.4zm-2.3 747.5c-9.2 1.3-21.4 4.9-30.9 8.9-25.5 10.9-51.6 35.8-63.2 60.3-4.9 10.3-14.2 36.7-16.5 46.7-13.7 58.7 7.7 114 56.8 147 19.1 12.8 41 20.3 64.6 21.9 40.9 2.9 78.6-11.4 108.7-41.3 28.3-28.2 42.7-65.7 40.4-105.6-2-34.7-14.7-64.1-37.6-87-4.8-4.8-16.1-14.4-25-21.3-23.5-18.1-38.6-25.4-60.4-29.2-9.4-1.6-27.3-1.8-36.9-.4z"/></svg><svg id="reward" data-name="Capa 1" viewBox="0 0 494.9 537.6" xmlns="http://www.w3.org/2000/svg"><defs><style>.ocls-1,.ocls-2{fill:none;stroke:#000;stroke-width:4px}.ocls-1{stroke-miterlimit:10}.ocls-2{stroke-linejoin:round}</style></defs><path class="ocls-1" d="M223.4 478.6V353l23.8 3.9L271 353v125.6h-47.6z"/><path class="ocls-2" d="M83.9 49.6S1.7 8.5 2 89c0 0-.8 71.1 45.6 129.4 0 0 36.2 51.4 98.9 71 0 0-17.4-26.8-26.1-47.2 0 0-57-32.4-77.5-99.2 0 0-36.2-91.7 40.9-59.1V49.6h.1z"/><path class="ocls-1" d="M247.2 356.9c41.3 0 75.6-37.3 75.6-37.3 42.5-42.9 65.7-115.7 65.7-115.7C418.8 124.6 407.7 2 407.7 2H86.6s-11 122.6 19.3 201.9c0 0 23.2 72.9 65.7 115.7 0 0 34.3 37.3 75.6 37.3z"/><path class="ocls-2" d="M411 49.6S493.2 8.5 492.9 89c0 0 .8 71.1-45.6 129.4 0 0-36.2 51.4-98.9 71 0 0 17.4-26.8 26.1-47.2 0 0 57-32.4 77.5-99.2 0 0 36.2-91.7-40.9-59.1V49.6h-.1z"/><path class="ocls-1" d="M104.2 494h285.9v41.6H104.2zm94-15.4h98V494h-98z"/><path d="M261.04 217.45h-24.7v-93.08c-9.02 8.44-19.66 14.68-31.9 18.72v-22.41c6.44-2.11 13.45-6.11 21.01-12s12.74-12.76 15.56-20.61h20.04v129.38z"/></svg><svg viewBox="0 0 512.007 512.007" id="reward-check" xmlns="http://www.w3.org/2000/svg"><path d="M234.671 234.645a10.54 10.54 0 007.509-3.115l85.333-85.333c4.16-4.16 4.16-10.923 0-15.083s-10.923-4.16-15.083 0l-77.781 77.781-35.115-35.115c-4.16-4.16-10.923-4.16-15.083 0s-4.16 10.923 0 15.083l42.667 42.667a10.717 10.717 0 007.553 3.115z"/><path d="M373.637 319.061c38.912-33.28 63.701-82.624 63.701-137.728C437.338 81.344 355.994 0 256.005 0S74.671 81.344 74.671 181.333c0 55.104 24.768 104.427 63.68 137.728L75.269 497.792a10.699 10.699 0 003.008 11.541 10.836 10.836 0 007.061 2.645 10.84 10.84 0 004.779-1.131l79.232-39.616 48 38.421c2.901 2.304 6.741 2.923 10.219 1.728 3.477-1.216 6.059-4.139 6.869-7.744l14.741-66.304 28.992 68.16a10.622 10.622 0 007.211 6.165c3.221.875 6.677.064 9.28-2.005l48-38.421 79.232 39.616a10.837 10.837 0 004.779 1.131c2.539 0 5.056-.917 7.04-2.667 3.264-2.88 4.459-7.467 3.008-11.541l-63.083-178.709zM96.005 181.312c0-88.235 71.765-160 160-160s160 71.765 160 160-71.765 160-160 160-160-71.765-160-160zm121.301 300.992l-39.979-31.979a10.718 10.718 0 00-11.435-1.216l-61.717 30.848 52.032-147.413c17.771 11.776 37.76 20.416 59.157 25.344l19.435 45.675-17.493 78.741zm128.789-33.195a10.718 10.718 0 00-11.435 1.216l-42.347 33.899-52.096-122.389c5.205.448 10.453.789 15.787.789 36.864 0 71.147-11.115 99.797-30.08l52.011 147.392-61.717-30.827z"/><path d="M256.005 298.645c64.704 0 117.333-52.651 117.333-117.333S320.709 63.979 256.005 63.979 138.672 116.63 138.672 181.312s52.629 117.333 117.333 117.333zm0-213.333c52.928 0 96 43.072 96 96s-43.072 96-96 96-96-43.072-96-96 43.072-96 96-96z"/></svg><svg viewBox="0 0 512 512" id="roller" xmlns="http://www.w3.org/2000/svg"><path d="M473.6 51.2h-26.018C444.706 21.888 427.187 0 405.333 0h-332.8C48.606 0 29.867 26.24 29.867 59.733s18.739 59.733 42.667 59.733h332.8c21.854 0 39.373-21.888 42.249-51.2h17.485v96.521l-173.705 66.167a8.537 8.537 0 00-5.495 7.979v34.133h-8.533a8.542 8.542 0 00-8.277 6.46l-8.533 34.133a8.506 8.506 0 00-.256 2.074v127.394l-8.448 59.136a8.566 8.566 0 001.997 6.801 8.58 8.58 0 006.451 2.935h68.267a8.556 8.556 0 006.451-2.944 8.566 8.566 0 001.997-6.801l-8.448-59.127V315.733c0-.7-.085-1.391-.256-2.074l-8.533-34.133a8.544 8.544 0 00-8.277-6.46h-8.533v-28.254l173.705-66.167a8.537 8.537 0 005.495-7.979V59.733A8.537 8.537 0 00473.6 51.2zm-68.267 51.2h-332.8c-13.875 0-25.6-19.541-25.6-42.667 0-23.125 11.725-42.667 25.6-42.667h332.8c13.875 0 25.6 19.541 25.6 42.667s-11.724 42.667-25.6 42.667zM304.802 290.133l6.665 26.65v126.95c0 .401.026.811.085 1.212l7.142 49.988h-48.58l7.142-49.988c.051-.401.077-.811.077-1.212v-126.95l6.665-26.65h20.804z"/></svg><svg viewBox="0 0 24 24" id="telegram" xmlns="http://www.w3.org/2000/svg"><path d="M24 24H0V0h24v24zm-7.744-5.148a.788.788 0 00.738.097.773.773 0 00.483-.56c.579-2.722 1.985-9.614 2.512-12.09a.525.525 0 00-.173-.506.538.538 0 00-.532-.093C16.489 6.734 7.88 9.964 4.361 11.267A.551.551 0 004 11.8c.008.235.167.44.395.509 1.578.471 3.65 1.128 3.65 1.128s.967 2.924 1.472 4.41c.063.187.21.334.402.384a.576.576 0 00.541-.138l2.064-1.948s2.381 1.746 3.732 2.707zm-7.34-5.784l1.119 3.692.249-2.338 6.79-6.124a.185.185 0 00.022-.251.19.19 0 00-.251-.043l-7.929 5.064z"/></svg><svg viewBox="0 0 1000 1000" id="vk" xmlns="http://www.w3.org/2000/svg"><path d="M949.4 671.9c-29.2-35-63.5-64.9-96-96.6-29.3-28.6-31.2-45.2-7.6-78.2 25.7-36 53.4-70.6 79.3-106.5 24.2-33.5 49-66.9 61.7-107 8.1-25.5.9-36.8-25.2-41.3-4.5-.8-9.2-.8-13.8-.8l-155.3-.2c-19.1-.3-29.7 8.1-36.5 25-9.1 22.9-18.5 45.8-29.4 67.9-24.7 50.1-52.2 98.6-90.9 139.6-8.5 9-18 20.5-32.2 15.8-17.8-6.5-23.1-35.8-22.8-45.8l-.2-179.2c-3.5-25.6-9.1-37-34.5-42H384.7c-21.5 0-32.3 8.3-43.8 21.8-6.6 7.8-8.6 12.8 5 15.4 26.8 5.1 41.9 22.4 45.9 49.2 6.4 42.9 6 86 2.3 129-1.1 12.6-3.3 25.1-8.2 36.9-7.8 18.5-20.4 22.2-36.9 10.9-15-10.3-25.5-24.8-35.8-39.3-38.7-54.7-69.6-113.6-94.7-175.5-7.3-17.9-19.8-28.7-38.8-29-46.6-.7-93.2-.9-139.8 0-28 .5-36.4 14.1-25 39.5 50.7 112.9 107.2 222.6 180.9 322.6 37.9 51.3 81.3 96.6 137.4 128.7 63.6 36.4 132.1 47.3 204.3 44 33.8-1.6 43.9-10.4 45.5-44 1.1-23 3.7-45.9 15-66.6 11.1-20.3 28-24.2 47.5-11.6 9.7 6.3 17.9 14.4 25.7 22.9 19 20.8 37.3 42.2 57.1 62.3 24.8 25.2 54.1 40.1 90.9 37h142.7c23-1.5 34.9-29.7 21.7-55.4-9.1-18-21.3-34-34.2-49.5z"/></svg><svg viewBox="0 0 24 24" id="whatsapp" xmlns="http://www.w3.org/2000/svg"><path d="M12.036 5.339a6.6 6.6 0 00-6.593 6.589c-.001 1.483.434 2.594 1.164 3.756l-.666 2.432 2.494-.654c1.117.663 2.184 1.061 3.595 1.061a6.6 6.6 0 006.592-6.59 6.585 6.585 0 00-6.586-6.594zm3.876 9.423c-.165.463-.957.885-1.337.942a2.727 2.727 0 01-1.248-.078 11.238 11.238 0 01-1.129-.417c-1.987-.858-3.285-2.859-3.384-2.991-.099-.132-.809-1.074-.809-2.049 0-.975.512-1.454.693-1.653.182-.2.396-.25.528-.25l.38.007c.122.006.285-.046.446.34.165.397.561 1.372.611 1.471.049.099.083.215.016.347-.066.132-.099.215-.198.33l-.297.347c-.099.099-.202.206-.087.404.116.198.513.847 1.102 1.372.757.675 1.395.884 1.593.983.198.099.314.083.429-.05.116-.132.495-.578.627-.777s.264-.165.446-.099 1.156.545 1.354.645c.198.099.33.149.38.231.049.085.049.482-.116.945zM0 0v24h24V0H0zm12.033 19.862a7.924 7.924 0 01-3.792-.965L4.038 20l1.125-4.108a7.906 7.906 0 01-1.058-3.964C4.107 7.556 7.663 4 12.033 4c2.121.001 4.112.827 5.609 2.325s2.321 3.491 2.32 5.609c-.002 4.372-3.559 7.928-7.929 7.928z"/></svg></svg>